[img]http://img695.imageshack.us/img695/6050/berv.jpg[/img]
[code]
Bereavement 2010 720p BRRiP XViD AC3 - IMAGiNE                 

Ripper ...........: IMAGiNE              IMDB Rating.......: 7.0/10                        
Video Codec.......: XViD                 Release Date......: 31/08/11
Audio Codec.......: AC3                  Theatre Date......: 00/00/00
Audio Bitrate.....: 448                  Runtime...........: 1h 46mn
Subtitles.........: NIL                  Language..........: ENGLISH
Resolution........: 1280 x 528            IMDb URL..........: http://www.imdb.com/title/tt1100051/

DETAILS:
Video
ID                               : 0
Format                           : MPEG-4 Visual
Format profile                   : Advanced Simple@L5
Format settings, BVOP            : 2
Format settings, QPel            : No
Format settings, GMC             : No warppoints
Format settings, Matrix          : Default (MPEG)
Muxing mode                      : Packed bitstream
Codec ID                         : XVID
Codec ID/Hint                    : XviD
Duration                         : 1h 47mn
Bit rate                         : 3 416 Kbps
Width                            : 1 280 pixels
Height                           : 528 pixels
Display aspect ratio             : 2.40:1
Frame rate                       : 23.976 fps
Color space                      : YUV
Chroma subsampling               : 4:2:0
Bit depth                        : 8 bits
Scan type                        : Progressive
Compression mode                 : Lossy
Bits/(Pixel*Frame)               : 0.211
Stream size                      : 2.56 GiB (88%)
Writing library                  : XviD 64

Audio
ID                               : 1
Format                           : AC-3
Format/Info                      : Audio Coding 3
Mode extension                   : CM (complete main)
Codec ID                         : 2000
Duration                         : 1h 47mn
Bit rate mode                    : Constant
Bit rate                         : 448 Kbps
Channel(s)                       : 6 channels
Channel positions                : Front: L C R, Side: L R, LFE
Sampling rate                    : 48.0 KHz
Bit depth                        : 16 bits
Compression mode                 : Lossy
Stream size                      : 344 MiB (12%)
Alignment                        : Aligned on interleaves
Interleave, duration             : 42 ms (1.00 video frame)

SOURCES:
VIDEO: ............. Bereavement.2010.720p.BluRay.x264-THUGLiNE
AUDIO: ............. Bereavement.2010.720p.BluRay.x264-THUGLiNE  Thanks

NOTES:
Ok so here we had a go at Bereavement 720p We wrote a script to sharpen then made a few rgb changes and so on....
Audio was then remuxed to our encode 
Enjoy!
[/code]
Screens:
[img]http://img94.imageshack.us/img94/8459/37677839.png[/img]
[img]http://img27.imageshack.us/img27/7136/60315045.png[/img]
[img]http://img594.imageshack.us/img594/1249/96601774.png[/img]
[img]http://img836.imageshack.us/img836/8426/81879706.png[/img]
[img]http://img843.imageshack.us/img843/4209/55023691.png[/img]